<svg xmlns="http://www.w3.org/2000/svg" xml:space="preserve" width="321.878" height="214.596" viewBox="0 0 85.164 56.778"><path d="M1009.228 268.024c.64 0 1.165.013 1.165.028 0 .015-.173.223-.384.462-.344.391-.94.932-1.682 1.53l-.263.211v-2.231zm-.596 2.18c.751-.59 1.495-1.3 1.871-1.785l.305-.393.016.305c.022.406-.112 1.153-.323 1.8-.182.557-.828 1.945-1.122 2.412-.213.337-1.253 1.746-1.29 1.746-.014 0-.026-.818-.026-1.819v-1.819zm-.311 4.28c.826-.91 1.798-2.522 2.24-3.715.29-.779.552-1.97.552-2.51v-.235h2.534l.485.305c1.556.977 2.607 2.266 3.137 3.85.175.522.409 1.497.368 1.537-.012.012-.43-.006-.93-.041-2.6-.183-4.125.228-5.471 1.474-.708.654-1.21 1.421-2.09 3.188-.318.637-.836 1.472-.997 1.606-.077.063-.085-.197-.083-2.556v-2.626zm-.11 5.845c.324-.298.825-1.067 1.217-1.869.794-1.624 1.314-2.418 2.025-3.088 1.236-1.166 2.425-1.514 4.83-1.413 1.353.058 1.37.062 1.382.32.087 1.916-.666 4.01-2.355 6.553-1.106 1.663-2.098 2.879-3.62 4.435-1.206 1.233-1.83 2.054-2.902 3.826a27.09 27.09 0 0 1-.673 1.078c-.03.032-.05-1.836-.05-4.828v-4.88zm-.033 10.344c.062-.092.365-.59.673-1.109 1.096-1.84 1.774-2.74 3.09-4.1 1.059-1.092 1.598-1.723 2.539-2.973 1-1.328 1.462-2.019 1.94-2.908 1.092-2.023 1.437-3.095 1.497-4.64l.032-.814.727.032c2.015.09 3.848-.383 5.116-1.32l.289-.213.233.429c.129.235.41.737.625 1.114.334.585.379.695.308.749-.773.588-1.1.862-1.723 1.443-1.583 1.477-3.582 3.733-4.417 4.985a26.2 26.2 0 0 0-.7 1.12l-.322.554-.642.305c-.608.288-1.8 1.043-2.531 1.602-.454.347-1.518 1.384-1.94 1.89-1.012 1.216-1.737 2.754-2.244 4.76-.334 1.323-.459 2.75-.385 4.402.056 1.249.065 1.32.334 2.62.236 1.137.312 1.438.692 2.726.292.99.41 1.616.41 2.164v.399l-.235.03c-1.185.158-1.693.198-2.52.198h-.96l.001-6.64c0-6.583 0-6.64.113-6.805zm.87 13.74c.854-.007 1.904-.1 2.498-.218.177-.035.177-.035.177.196 0 1.204-.855 2.673-2.29 3.929-.631.553-.943.804-1.216.98l-.153.098v-4.975zm-.493 4.987c1.035-.718 2.037-1.658 2.517-2.365.484-.71.762-1.519.906-2.629.036-.276.047-.293.182-.277.119.014.192.105.413.516.148.274.526.898.84 1.386 1.131 1.762 1.874 3.294 2.419 4.99.532 1.657.753 2.241 1.184 3.118.406.83 1.005 1.883 1.335 2.349l.18.256-.84.42c-1.032.516-3.046 1.24-3.221 1.157-.062-.029-.425-.283-.806-.565-.665-.493-1.017-.786-2.356-1.967-.578-.51-2.072-1.659-2.856-2.196l-.36-.247-.015-1.803-.015-1.802zm-.117 4.564a32.762 32.762 0 0 1 3.258 2.574c.882.78 1.447 1.24 2.048 1.665.428.303.482.359.397.41-.883.534-1.85 1.238-2.253 1.64-.675.672-.855 1.048-1.124 2.344l-.067.322-.345-.21c-.444-.272-1.128-.823-1.775-1.43l-.513-.482V313.7zm-.342 7.286c.017 0 .345.263.73.583.603.505 1.214.948 1.739 1.263.14.084.145.106.174.786.017.384.017.748 0 .808-.027.104-.084.109-1.353.109h-1.324v-1.775c0-.975.014-1.774.031-1.774zm2.554-27.389c.078-.64.374-2.268.491-2.708.154-.57.516-1.53.821-2.172.702-1.474 1.799-2.761 3.393-3.98.64-.49 2.272-1.508 2.415-1.508.02 0-.118.318-.31.707-.571 1.164-1.086 2.727-1.246 3.784-.09.607-.077 2.03.028 2.744.154 1.048.41 1.905.75 2.506l.163.289-.202.264c-.333.436-.854 1.334-1.102 1.9-1.144 2.607-1.3 4.638-.55 7.137.034.112-.01.136-.564.315-.331.106-.973.285-1.427.397-.667.164-.835.189-.873.13-.087-.138-.387-.959-.503-1.378-.063-.228-.247-.865-.407-1.413-.39-1.335-.679-2.59-.782-3.39-.08-.626-.148-3.196-.096-3.624zm.44 28.592c.162-.89.644-1.802 1.205-2.274.331-.279 1.535-1.062 1.966-1.28l.293-.147 1.426.958c2.694 1.81 3.836 2.877 5.161 4.825l.18.264h-3.673c-3.537 0-3.676-.004-3.786-.106-.203-.188-1.026-.66-1.954-1.12-1.018-.506-.946-.407-.817-1.12zm-.027.973.413.172c.365.151 1.388.72 1.826 1.014l.277.187h-1.226c-1.432 0-1.277.096-1.333-.828-.03-.485-.023-.572.043-.545zm1.02-19.862c.098.255.098.277 0 .277-.062 0-.082-.061-.079-.236v-.235zm.716.42c.238-.045 1.826-.494 2.303-.651.197-.065.366-.095.376-.066.044.133.804 1.24 1.016 1.48.303.343.842.772 1.532 1.22.681.442 1.053.632 2.07 1.062l.803.34-.01.218c0 .12-.026.468-.047.773-.032.456-.019.653.076 1.114.233 1.125.679 2.402 1.286 3.68.259.546.28.62.211.719-.205.295-2.832 2.334-3.336 2.59-.325.164-.226.26-.92-.896-.973-1.622-1.341-2.42-1.754-3.8-.3-1.002-.821-2.37-1.195-3.137-.304-.621-.604-1.135-1.824-3.126-.381-.621-.778-1.367-.778-1.462 0-.012.085-.038.19-.058zm4.951-35.96h3.543l.761 1.262 1.313 2.17c.303.499.537.931.519.96-.045.073-.73.507-1.08.684-.48.244-1.303.52-1.843.619-.584.107-2.873.14-2.968.044-.03-.03-.115-.33-.19-.666-.244-1.087-.688-2.125-1.241-2.9-.475-.666-1.322-1.476-2.068-1.978l-.29-.195zm-2.665 50.504c.087-.034.433-.156.769-.271.903-.31 1.42-.526 2.174-.91l.677-.345.446.597c.797 1.065 2.163 2.38 3.21 3.092.806.547 2.29 1.17 3.178 1.334l.37.068.063.286c.034.157.11.672.168 1.144.058.473.12.953.136 1.068l.03.208h-4.633l-.359-.511c-1.339-1.904-2.463-2.958-5.072-4.756-.457-.315-.94-.656-1.074-.757l-.242-.184zm.08-19.455c.196-1.516.905-3.4 1.767-4.696l.377-.565.282.348c.615.758 1.581 1.561 2.504 2.083.686.388 2.001 1.023 2.357 1.138.183.06.342.115.355.123.06.04-.703.937-1.35 1.587-1.327 1.336-3.284 2.65-5.08 3.413-.778.33-.755.334-.916-.16-.31-.949-.427-2.248-.295-3.271zm.73 3.938c1.698-.692 3.493-1.72 4.672-2.677.538-.436 1.891-1.823 2.273-2.329.152-.202.302-.358.332-.346.768.286 4.057 1.196 5.207 1.44.363.076.67.149.682.161.012.013-.122.105-.3.205-.403.228-2.443 1.582-3.271 2.172-2.474 1.76-3.597 3.051-4.252 4.886a6.998 6.998 0 0 1-.22.571c-.04.041-1.09-.368-1.614-.629-.72-.36-1.822-1.106-2.323-1.574-.606-.566-1.31-1.518-1.31-1.77 0-.032.056-.082.124-.11zm.626-14.916c.185-1.314.784-3.011 1.526-4.325.37-.656.26-.579 1.383-.971 2.415-.844 4.833-1.016 7.087-.504.314.072.598.156.63.188.041.04 0 .253-.145.702-.257.817-.5 1.349-.857 1.878-.35.52-1.51 1.817-2.094 2.342a82.91 82.91 0 0 1-3.069 2.55c-.997.774-2.467 2.06-3.09 2.702l-.568.586-.117-.26a11.706 11.706 0 0 1-.572-1.74 9.995 9.995 0 0 1-.114-3.148zm1.343 5.035c.729-.79 1.912-1.843 3.479-3.097 1.845-1.476 2.657-2.174 3.414-2.931.852-.853 1.574-1.736 1.934-2.365.283-.495.59-1.281.678-1.734.033-.172.078-.334.1-.358.082-.092 1.456.484 2.254.945l.342.197-.452.508c-1.572 1.766-2.515 3.487-3.615 6.6-.745 2.11-1.037 2.827-1.716 4.213-.45.92-.845 1.579-1.178 1.965l-.163.191-.356-.128c-.428-.154-1.948-.908-2.473-1.226-.939-.57-1.825-1.312-2.341-1.96-.155-.195-.281-.368-.281-.385 0-.017.168-.213.374-.435zm1.174-11.122c1.245-1.976 3.699-4.68 5.732-6.318.405-.327.675-.508.707-.476.062.062.622 1.338.997 2.274.299.745.553 1.647.694 2.457.1.579.13 2.078.044 2.164-.033.033-.278.001-.66-.085-2.293-.521-4.769-.338-7.386.548-.313.106-.566.176-.563.155 0-.02.199-.344.435-.72zm.356 34.605c.462-.267 1.323-.909 2.328-1.735.817-.672.918-.749.949-.718.072.072 1.687 3.31 1.974 3.958.353.796.968 2.584 1.122 3.263l.086.381-.264-.035c-.835-.11-2.456-.824-3.304-1.454-.673-.5-1.619-1.335-1.954-1.726-.27-.314-1.237-1.541-1.3-1.65-.018-.03.145-.158.363-.284zm1.758-8.558c.028-.168.065-.361.08-.43l.03-.123.345.13c.94.353 2.419.736 3.972 1.03.653.122 1.198.234 1.211.247.046.046-1.33 1.914-1.83 2.482-.276.315-.877.94-1.335 1.388l-.833.816-.16-.278c-.284-.499-.8-1.725-1.034-2.46-.392-1.224-.547-2.204-.446-2.802zm.203-.943c.156-.486.584-1.443.805-1.8.412-.66 1.053-1.427 1.596-1.907 1.19-1.052 3.981-3.022 5.482-3.87l.312-.177.602.164c.565.154 1.45.468 1.546.548.045.038-.825 2.07-1.232 2.88a45.543 45.543 0 0 1-1.556 2.776c-.236.381-.563.919-.728 1.194-.342.57-1.144 1.689-1.21 1.689-.13 0-2.058-.348-2.608-.47-1.056-.235-2.89-.79-3-.907-.02-.02-.024-.074-.01-.12zm2.701-39.088c1.328 0 2.415.02 2.415.042 0 .1-.277 1.039-.417 1.41-.25.666-.612 1.322-.989 1.793-.355.443-.823.914-.91.914-.026 0-.092-.093-.146-.206-.054-.114-.411-.706-.794-1.317a70.237 70.237 0 0 1-1.55-2.594c-.013-.023 1.063-.042 2.391-.042zm-.578 45.345c.559-.517 1.649-1.687 2.206-2.367.162-.197.543-.713.846-1.147.303-.434.585-.817.628-.853.06-.049.154-.044.402.022.179.047 1.108.261 2.065.477.956.215 1.954.467 2.217.559.566.198 1.005.382 1.005.419 0 .015-.072.118-.16.229-.332.421-.902 1.354-1.245 2.04-.974 1.943-1.49 4.138-1.643 6.977-.03.58-.057 1.179-.057 1.331 0 .153-.02.309-.046.348-.06.095-1.261.323-2.127.404-.675.063-1.334.055-1.406-.016-.02-.02-.104-.317-.189-.662a22.247 22.247 0 0 0-1.01-3.012c-.242-.571-1.481-3.133-2.028-4.194-.01-.02.234-.269.542-.555zm.019-16.292c.45-.613 1.283-2.208 1.836-3.514.26-.614.607-1.553 1.033-2.8.625-1.827 1.334-3.331 2.153-4.564.444-.67 1.32-1.756 1.684-2.09l.144-.131.36.287c1.261 1.003 2.413 2.82 2.854 4.499.245.933.304 1.412.304 2.491 0 1.326-.133 2.182-.694 4.437l-.339 1.359-.533.303a98.48 98.48 0 0 0-1.67.99l-1.136.686-.638-.124c-1.08-.211-4.535-1.112-5.153-1.344-.196-.073-.364-.157-.373-.185-.01-.028.067-.163.168-.3zm1.264-25.037c1.029-1.016 1.473-1.845 1.875-3.503l.125-.513h3.149l-.034.21c-.038.24.385 3.58.507 4.007.02.065-.048.105-.266.16-1.384.343-2.924 1.077-4.21 2.005l-.371.267-.383-.677a82.26 82.26 0 0 1-.61-1.097l-.227-.42zm1.114 2.736c.32-.242 1.773-1.107 2.328-1.385.49-.246 1.571-.639 2.022-.735.176-.037.178-.034.259.257.045.163.199.82.343 1.46.477 2.122 1.296 4.659 1.99 6.158l.2.434-.542.55c-.299.301-.916.893-1.372 1.314l-.83.765-.14-.096c-.452-.31-1.656-.878-2.262-1.066l-.346-.108v-.898c0-1.73-.321-2.985-1.383-5.415a23.202 23.202 0 0 1-.447-1.06c0-.022.081-.1.18-.175zm.92 47.361c.967 0 2.045-.14 2.823-.365.12-.035.124-.024.126.373 0 .39.065 1.381.143 2.248l.037.406h-3.332l-.032-.208a25.97 25.97 0 0 1-.09-.707c-.067-.58-.21-1.51-.253-1.65-.027-.088.025-.097.578-.097zm1.01-14.055c.215-.305.47-.691.565-.86.095-.167.427-.717.738-1.221a34.555 34.555 0 0 0 2.573-4.988c.16-.381.312-.714.336-.74.066-.072.88.38 1.429.794 1.218.918 2.355 2.627 2.7 4.06.148.616.305 1.816.305 2.33v.317l-.513.256a8.572 8.572 0 0 0-2.235 1.585l-.622.608-.325-.134c-.66-.274-1.41-.487-2.674-.758a62.51 62.51 0 0 1-1.858-.424 36.87 36.87 0 0 0-.685-.173c-.07-.015-.125-.043-.125-.062 0-.02.176-.285.391-.59zm2.474-9.162a43.15 43.15 0 0 1 2.116-1.258c.102-.052.198-.082.214-.066.033.033-.64 2.09-.709 2.164-.027.03-.285-.045-.62-.178a8.367 8.367 0 0 0-.922-.31 2.261 2.261 0 0 1-.376-.108c-.014-.014.119-.124.297-.244zm-.223 21.027.077-.998c.065-.84.32-2.44.502-3.157.293-1.148.911-2.758 1.355-3.525.265-.459.642-1 .953-1.37l.244-.291 1.036.523c.856.433 1.534.816 1.649.93.046.046-.376 1.96-.612 2.774-.317 1.094-.463 1.477-.87 2.287-.777 1.546-1.704 2.644-2.902 3.436-.44.291-1.303.75-1.412.75-.053 0-.065-.793-.021-1.359zm0 1.676c.028-.018.222-.097.43-.175.92-.347 2.084-1.23 2.881-2.187.663-.796 1.321-1.941 1.73-3.011.268-.704.639-2 .873-3.058.107-.483.208-.891.224-.907.043-.043 1.09.731 1.644 1.215.648.567 1.082 1.085 1.703 2.035.768 1.176 1.459 2.54 1.85 3.659.163.464.179.448-.452.448-2.373 0-4.104 1.105-5.561 3.549-.173.29-.42.77-.549 1.067l-.234.54h-4.294l-.054-.207c-.15-.571-.3-2.902-.192-2.968zm2.2-53.599h2.142l.03.153c.098.478.463 1.45.827 2.2.23.473.478 1.004.551 1.18.142.338.323.91.296.937-.01.01-.182-.045-.387-.119-.827-.3-1.41-.383-2.701-.382-.993.001-1.285.02-1.747.117-.32.067-.568.094-.586.065-.066-.105-.441-2.751-.527-3.721l-.038-.43zm-.975 15.066c.389-.352.966-.904 1.283-1.227.317-.323.584-.588.592-.588.01 0 .147.219.307.485.545.91 1.153 1.76 1.915 2.676 1.167 1.401 2.189 2.412 3.503 3.464.396.317.406.33.37.523-.047.269-.76 3.007-1.032 3.969-.12.427-.27 1.063-.331 1.414-.062.35-.124.678-.139.727-.015.05-.179.146-.37.215-.977.351-1.97.827-3.233 1.55-.481.275-.883.492-.893.482-.01-.01.107-.514.26-1.122.152-.607.357-1.566.455-2.13.165-.949.179-1.118.179-2.273s-.011-1.3-.154-1.968c-.242-1.13-.543-1.909-1.117-2.884-.531-.902-1.403-1.916-2.094-2.434-.114-.086-.208-.175-.208-.197 0-.023.318-.33.707-.682zm-.194-10.624c1.285-.23 2.068-.27 2.959-.151.686.09 1.395.27 1.865.471l.263.113v.94c0 1.944-.402 3.269-1.5 4.941-.447.681-1.347 1.83-1.434 1.83-.137 0-.97-2.101-1.412-3.56-.369-1.217-1.088-4.14-1.088-4.422 0-.08.071-.113.347-.162zm1.106 27.361c.07-.124.613-1.728.739-2.182l.096-.347.7-.418c1.189-.71 3.827-1.989 3.918-1.898.017.017-.01.252-.055.522-.191 1.108-.165 1.85.106 2.987.48 2.016 1.828 3.588 4.12 4.801.377.2.455.264.435.355-.014.06-.162.485-.33.942a17.02 17.02 0 0 0-.484 1.58l-.193.808c-.01.04-.157.044-.45.016-.975-.095-2.647.144-3.71.53l-.358.13v-.257c0-.355-.15-1.583-.25-2.07-.18-.867-.5-1.61-1.067-2.483-.785-1.209-1.555-1.938-2.793-2.645-.41-.234-.471-.288-.425-.37zm1.5 10.19c.896-.837 2.075-1.67 2.578-1.821.116-.036.125-.021.125.211 0 .345-.346 3.018-.419 3.24-.017.053-.12.019-.37-.12a66.11 66.11 0 0 0-1.307-.688l-.958-.494zm.1-29.52c1.906-2.29 2.664-4.13 2.68-6.498 0-.48.022-.873.041-.874.078 0 .736.472 1.024.736.434.396 1.254 1.566 1.603 2.286.299.616.62 1.582.77 2.316.161.789.215 1.777.183 3.358-.044 2.175-.23 3.898-.586 5.411l-.153.65-.329-.265c-2.036-1.64-3.86-3.676-5.11-5.704-.282-.458-.513-.857-.514-.889 0-.03.176-.268.39-.526zm4.689-12.473h3.71l-.041.592c-.022.325-.097.967-.166 1.427-.174 1.16-.173 2.568 0 3.457.218 1.108.609 2.037 1.183 2.813.425.575 1.718 1.83 2.311 2.246l.603.42c.077.055.07.141-.062.83-.22 1.134-.274 1.748-.273 3.074.001 1.65.12 2.701.466 4.158.254 1.071.534 1.97.743 2.384l.19.377-.345.067c-.515.1-2.204.136-2.787.06-1.55-.204-2.56-.58-3.847-1.435-.26-.174-.494-.33-.519-.348-.024-.019.03-.343.12-.721a30.3 30.3 0 0 0 .516-3.002c.036-.323.065-1.552.068-2.843.01-2.524-.01-2.686-.38-4.047-.486-1.782-1.751-3.662-3.05-4.53-.497-.333-.5-.337-.57-.647-.137-.605-.307-1.044-.819-2.114-.572-1.197-.686-1.498-.732-1.927l-.03-.29zm-3.199 55.97c.436-.885.742-1.364 1.334-2.084 1.043-1.268 2.55-1.948 4.343-1.96.504-.002.612.012.67.091.084.117.282 1.034.397 1.847.047.335.1 1.127.118 1.76l.032 1.15h-3.64c-2 0-3.638-.005-3.637-.013.001-.008.173-.363.383-.79zm.972-12.177c.044-.043.358-2.306.43-3.087l.066-.739.197-.083a8.048 8.048 0 0 1 1.665-.469c.7-.12 2.55-.213 2.55-.126 0 .028-.041.363-.093.743-.065.478-.094 1.086-.095 1.967-.001 1.083.017 1.38.123 1.975.242 1.356.698 2.665 1.19 3.422.843 1.295 2.424 2.747 3.734 3.428 1.698.883 3.013 1.202 4.965 1.207l1.09.003.037.305c.067.55.298 1.628.436 2.031l.135.395-.366.243c-.521.345-1.137.857-1.617 1.345l-.415.422h-1.212l-1.336-1.318c-2.181-2.151-3.69-3.18-5.374-3.67l-.49-.143-.208-.553c-.47-1.257-.895-2.156-1.428-3.02-.8-1.301-1.462-2.129-2.257-2.823-.558-.486-1.434-1.172-1.628-1.274-.12-.063-.154-.125-.099-.18zm1.632-16.304c.05-.357.105-.66.119-.675.04-.04 1.687-.353 2.243-.427.701-.093 2.267-.033 3.041.116.331.064.809.191 1.062.283.48.174 1.566.78 1.613.901.015.039-.226.53-.534 1.092-1.135 2.071-2.33 4.563-2.814 5.874l-.17.454-.059.15-.502-.274c-.983-.534-1.6-.987-2.281-1.675-.413-.417-.995-1.213-1.228-1.677-.541-1.082-.717-2.566-.49-4.142zm.425-2.17c.132-.573.332-1.372.444-1.773.112-.402.336-1.25.498-1.886.161-.636.305-1.167.32-1.181.013-.014.375.183.802.439 1.261.753 2.514 1.177 3.893 1.318.835.085 2.268.012 2.918-.149.102-.025.16.044.41.488.16.285.375.649.477.81.103.16.187.337.187.393 0 .056-.186.388-.413.738-.226.35-.69 1.133-1.03 1.74-.34.608-.626 1.113-.635 1.123-.01.01-.288-.136-.618-.323-.934-.53-1.543-.747-2.572-.912-1.104-.178-3.17-.066-4.494.242-.299.07-.438.082-.434.04 0-.034.115-.532.247-1.106zm2.967 15.654c.05-.61.193-1.602.236-1.645.038-.037 1.1.128 1.672.26 1.587.367 3.214 1.27 4.467 2.479 1.59 1.533 2.786 3.605 3.566 6.18.165.542.755 3.21.755 3.41 0 .102-1.219.153-1.932.079-1.334-.138-2.423-.445-3.584-1.01-.76-.37-1.285-.718-1.97-1.305-1.414-1.215-2.16-2.28-2.658-3.79a11.576 11.576 0 0 1-.552-4.658zm.38-2.495c.157-.674.267-1.032.597-1.94.17-.473.314-.865.318-.87 0-.007.33.097.726.23.863.291 1.337.395 2.207.485.567.058.758.054 1.416-.029.787-.099 1.474-.26 2.14-.502.212-.078.392-.134.4-.126.01.008.041.325.074.704.107 1.241.32 2.028.813 3.016.323.647.547.979 1.037 1.539.459.524.653.702 1.15 1.056.708.505 1.525.844 2.455 1.018.528.098.532.1.532.26 0 .719.414 2.464.836 3.524.381.956.788 1.673 1.485 2.62.067.09.06.116-.055.213-.184.154-1.743.945-2.39 1.213-.675.28-1.554.534-2.34.676-.788.142-.807.141-.807-.033 0-.235-.477-2.378-.72-3.231a16.183 16.183 0 0 0-2.225-4.754c-1.684-2.478-4.304-4.096-7.243-4.471-.286-.037-.51-.092-.508-.124 0-.032.05-.245.102-.474zm.386 13.528c.028 0 .309.09.624.199.995.344 2.037.952 3.124 1.823.558.447 2.496 2.31 2.699 2.594l.109.153h-6.134l-.01-.984a15.262 15.262 0 0 0-.328-3.048c-.156-.779-.151-.737-.086-.737zm.12-48.929c.022-.244.106-.936.185-1.539.08-.603.144-1.195.144-1.317v-.22h6.13l.305.318c.574.6.58.61.486.72-.132.156-.73 1.255-1.093 2.01-.664 1.382-1.377 3.825-1.812 6.21-.142.778-.268 1.425-.28 1.438-.045.049-.793-.519-1.392-1.056-1.05-.942-1.727-1.83-2.17-2.84-.284-.646-.427-1.28-.504-2.22-.063-.775-.063-.84 0-1.504zm.592 32.047c.484-1.243.659-1.652 1.134-2.662.301-.64.952-1.928 1.445-2.862 1.04-1.973.857-1.855 1.596-1.03 1.212 1.351 1.924 2.953 2.213 4.974.235 1.641.251 1.834.165 1.89-.177.115-1.45.488-1.966.576-.885.15-2.13.123-2.964-.065-.511-.115-1.568-.46-1.645-.536-.05-.048-.044-.116.022-.285zm3.323-21.263c.09-1.29.317-2.689.429-2.64l.768.336c.891.39 1.505.57 2.314.678 1.13.152 2.593.024 3.572-.313.18-.062.335-.105.344-.096.035.035-.094 1.364-.176 1.813-.16.874-.705 2.714-1.035 3.493-.22.517-1.009 2.045-1.441 2.79-.248.428-.301.467-1.264.934-.783.38-1.317.599-1.799.737-.4.115-.384.13-.667-.603a16.336 16.336 0 0 1-1.073-5.87c0-.555.017-1.122.027-1.259zm.746 12.974c.427-.76 1.17-2.007 1.496-2.51l.207-.321.24.285c.64.762.974 1.108 1.806 1.874 1.354 1.246 1.622 1.455 4.306 3.349.102.072.099.086-.09.404-1.394 2.352-2.658 3.879-3.841 4.64-.476.306-1.12.65-1.217.65-.05 0-.1-.225-.166-.761-.198-1.61-.406-2.47-.873-3.605-.447-1.086-.944-1.84-1.804-2.735-.253-.263-.458-.5-.456-.527 0-.028.178-.362.393-.743zm-.281-16.217c.026-.122.134-.696.242-1.276.232-1.248.92-3.876 1.28-4.884.288-.807 1.144-2.572 1.447-2.982l.2-.27.133.16c.777.934 1.49 1.968 1.852 2.683.405.8 1.11 2.694 1.332 3.573.34 1.35.606 3.75.432 3.895-.101.084-.785.272-1.405.385-.687.126-2.108.128-2.775.004a8.814 8.814 0 0 1-2.173-.733c-.343-.165-.621-.307-.618-.317 0-.009.027-.117.052-.239zm1.535 11.203c.48-.156 1.81-.736 2.052-.895.1-.066.124-.067.124-.007 0 .108-1.696 2.535-1.77 2.534-.054-.001-.89-1.379-.89-1.465 0-.005.217-.08.484-.167zm1.044 1.3c.226-.321.558-.783.737-1.026.18-.244.467-.683.64-.976.375-.635.474-.734 1.336-1.34.366-.257.947-.67 1.291-.918a12.149 12.149 0 0 1 2.577-1.432c.46-.193.843-.344.852-.336.01.008-.032.202-.09.43-.343 1.35-.484 3.774-.307 5.265.1.842.272 1.574.645 2.746l.283.888-.476.676c-.261.371-.69 1.02-.954 1.44-.263.42-.487.773-.498.785-.024.025-1.248-.828-2.215-1.545-1.47-1.089-3.148-2.617-3.685-3.355a5.626 5.626 0 0 0-.44-.549c-.063-.058-.114-.12-.111-.139 0-.018.19-.295.415-.615zm.555-23.12h.595l-.3.326c-.165.18-.315.329-.333.332-.018.003-.151-.143-.295-.326l-.261-.333zm.533 35.332c1.774-.901 3.068-2.322 4.918-5.402l.089-.148.499.306c.7.43 1.994 1.315 2.356 1.614.416.343 1.275 1.188 1.275 1.255 0 .03-.22.342-.49.694-2.235 2.92-3.334 5.72-3.335 8.5 0 .825.064.775-.732.573-1.115-.283-1.936-.723-2.697-1.448-.56-.532-.81-.842-1.25-1.543-.622-.993-.917-2.036-1.058-3.75l-.034-.417zm.047-34.889.391-.444h2.54l.234.347c1.04 1.545 2.63 2.807 4.545 3.61.722.302 2.07.746 2.405.792.138.019.25.044.25.056 0 .18-.827 1.575-1.353 2.282-1.353 1.816-2.504 2.854-4.103 3.7-.53.28-1.21.58-1.318.58-.025 0-.045-.147-.045-.326 0-.511-.16-1.976-.282-2.586-.51-2.545-1.68-5.069-3.262-7.03a7.06 7.06 0 0 1-.393-.512c0-.014.176-.225.391-.469zm.813 55.936c.667-.652 1.588-1.329 1.679-1.234.06.062.619 1.583.592 1.61-.011.011-.612.014-1.334.006l-1.312-.015zm.411-36.947c.37-.61 1.053-2.072 1.367-2.924.537-1.457.859-2.902.936-4.204l.035-.585.338-.128c1.411-.535 2.657-1.36 3.788-2.507 1.158-1.176 1.916-2.214 2.749-3.762l.23-.427c0-.006.381.038.837.099 1.423.189 3.26.202 4.818.034.082-.009.12.04.163.21.083.332.062 2.803-.03 3.272-.073.384-.075.388-.24.37-.091-.01-.616-.022-1.165-.026-1.074-.008-1.377.041-2.266.376-1.746.657-3.4 2.148-4.89 4.408-.643.973-.817 1.34-1.37 2.877-.064.177-.12.208-1.038.585-1.458.599-2.07.945-3.243 1.834-.816.618-1.193.878-1.19.82 0-.025.079-.17.171-.322zm.922 32.556c.023-.013.182-.041.354-.062.431-.052 1.274-.266 2.107-.534.694-.222 1.91-.783 2.813-1.295l.464-.264.728.743c1.449 1.478 3.2 2.774 5.452 4.032.342.191.643.376.67.411.026.035.13.276.231.535s.268.64.37.845l.188.375h-4.147l-.23-.387c-.767-1.29-2.015-2.263-3.359-2.615-.636-.167-1.948-.207-2.583-.078a8.172 8.172 0 0 0-2.003.689l-.538.271-.083-.257c-.151-.47-.3-1.137-.389-1.742-.102-.7-.098-.637-.046-.667zm1.272 2.61c1.04-.498 1.898-.708 2.9-.708.982 0 1.894.258 2.8.79.512.302 1.376 1.167 1.675 1.678l.227.388-3.774.014c-2.075.008-3.783.005-3.794-.006-.033-.033-.615-1.548-.654-1.701-.033-.134 0-.157.62-.455zm3.805-54.599h3.903l.035.291c.053.437.043 1.18-.022 1.695-.107.855-.57 2.506-.703 2.505-.024 0-.293-.064-.598-.14-1.917-.484-3.449-1.222-4.66-2.247-.785-.665-1.54-1.498-1.793-1.979l-.066-.125zm-1.664 28.859c.464-.766 1.284-2 1.362-2.048.03-.018.147.124.262.314.82 1.363 2.8 3.553 3.571 3.952l.165.085-.495.444c-.272.244-.502.464-.512.49-.01.025-.137.177-.281.337l-.264.291-.481-.456c-.66-.624-1.292-1.104-2.61-1.981a63.592 63.592 0 0 1-1.121-.755c0-.004.182-.307.404-.673zm.099 11.92c.161-1.135.422-2.032.953-3.274.292-.682.436-.962.869-1.688.443-.745 1.34-1.994 1.74-2.424l.164-.177.162.136c.09.075.375.367.635.649 1.1 1.192 2.03 2.964 2.451 4.671.12.483.304 1.526.275 1.547-.01.007-.306.105-.657.216-.62.197-1.621.665-2.742 1.282a9.362 9.362 0 0 1-3.315 1.1l-.596.078.01-.891c0-.491.028-1.042.054-1.225zm-.024 2.393c.02-.02.114-.037.208-.037.366 0 1.522-.233 2.08-.418.324-.108 1.34-.565 2.277-1.024.93-.456 1.924-.904 2.209-.996.284-.092.528-.168.54-.168.045 0 .022 1.205-.035 1.8-.157 1.659-.643 2.892-1.625 4.122-.462.58-1.21 1.35-1.751 1.804-.475.397-1.597 1.186-1.625 1.141-.01-.013-.091-.123-.184-.245-1.126-1.479-1.794-3.125-2.045-5.043-.096-.736-.103-.881-.05-.936zm.524-23.101c.067-.84.25-2.056.395-2.631l.125-.497.333-.1c1.212-.364 3.936-.728 5.982-.8.915-.031 1.087-.025 1.085.041 0 .043-.05.29-.11.55-.169.722-.238 1.882-.168 2.788.065.837.273 2.127.437 2.712l.104.372-.255.033c-1.07.14-2.689.53-3.448.83-1.189.47-1.8.897-2.924 2.04-.795.808-.668.855-1.011-.376-.528-1.891-.68-3.272-.545-4.962zm.983-4.352c.42-1.012.53-1.222 1.055-2.006a15.582 15.582 0 0 1 1.974-2.376c1.115-1.114 2.498-1.878 3.921-2.166.35-.071.62-.085 1.151-.06.9.04 1.033.079 1.011.292-.03.3-.352 1.363-.761 2.51-.862 2.42-1.135 3.207-1.22 3.514l-.089.32h-.814c-1.475 0-4.282.319-5.693.646a288.6 288.6 0 0 1-.734.17c-.07.015-.124.007-.123-.02 0-.026.146-.397.323-.824zm.458 10.232c1.227-1.389 2.41-2.156 4.025-2.61a26.85 26.85 0 0 1 2.541-.525l.28-.036.125.355c.069.195.573 1.25 1.12 2.342.546 1.094.988 1.993.98 1.998-.01.006-.311.13-.677.275-1.417.561-2.154 1.016-3.817 2.353l-1.045.84-.23-.138c-.949-.566-2.77-2.632-3.607-4.087l-.146-.256zm1.172 23.255c2.222-1.582 3.734-3.5 4.201-5.327.192-.748.336-2.202.332-3.332 0-.106.591-.199 1.247-.196 1.028.005 2.18.283 3.285.792.343.158.457.238.457.319 0 .19-.496 1.57-.775 2.157a65.054 65.054 0 0 1-1.14 2.157c-1.17 2.135-1.458 2.778-1.74 3.892-.355 1.392-.398 3.116-.11 4.345.065.273.104.51.087.526-.075.075-1.83-.99-3.003-1.82-.63-.447-.793-.578-1.895-1.524-.568-.487-1.571-1.462-1.57-1.524.002-.011.282-.22.624-.465zm1.414-16.923c.328-.331.698-.68.822-.777l.226-.174.578.36c.318.2.827.502 1.132.673 2.077 1.167 3.074 1.849 3.84 2.628.82.833 1.144 1.353 1.5 2.404.211.621.288 1.174.286 2.042 0 .605-.108 1.496-.188 1.576-.017.017-.25-.07-.516-.194a8.017 8.017 0 0 0-3.286-.758 9.512 9.512 0 0 0-1.06.042l-.31.047-.036-.352c-.12-1.178-.794-3.082-1.512-4.276-.4-.664-1.491-2.03-1.955-2.446-.065-.059-.117-.125-.117-.149 0-.024.268-.314.596-.646zm.763-28.18c.156-.438.394-1.49.478-2.112.034-.252.05-.804.037-1.225l-.024-.767 2.08.014 2.08.015.098.416c.26 1.103.769 4.183.701 4.24-.088.074-1.098.155-2.235.179-1.104.023-1.533.01-2.104-.063-.92-.119-1.251-.191-1.244-.272 0-.035.063-.227.134-.425zm1.205 26.403c1.652-1.33 2.568-1.912 3.878-2.46.43-.18.786-.32.791-.311.01.008.218.377.473.819 1.439 2.5 2.32 3.73 3.686 5.144 1.423 1.474 2.712 2.288 4.677 2.955l.85.288.558 1.13c.307.622.548 1.138.536 1.148-.012.01-.221 0-.465-.023-.86-.078-1.94.15-2.69.567-.512.285-1.465 1.025-1.865 1.449-.47.496-1.195 1.452-1.382 1.82l-.14.276-.51-.52c-.524-.534-1.14-1.05-1.606-1.344-.145-.091-.252-.195-.239-.23.096-.254.152-1.08.13-1.917-.024-.834-.049-1.04-.194-1.595-.338-1.295-.736-1.998-1.648-2.917-.789-.794-1.42-1.235-3.44-2.406-1.22-.707-2.08-1.238-2.08-1.286 0-.022.307-.286.68-.587zm1.933-12.875c.026-.228.1-.671.166-.984l.12-.568h.172c.347 0 1.904.17 2.336.254 1.103.215 2.588.819 3.476 1.413.511.342.557.388.47.462-.04.033-.387.423-.77.865-1.492 1.722-2.382 2.402-3.87 2.953-.504.187-1.488.458-1.521.42-.01-.01-.08-.268-.16-.573-.395-1.537-.55-3.095-.419-4.242zm.712-2.883a58.37 58.37 0 0 1 .71-1.996c.427-1.126.707-1.986.942-2.892l.153-.591.471.152c1.142.37 2.11 1.008 3.245 2.14 1.043 1.037 3.158 3.34 3.158 3.437 0 .043-.286.408-.637.81-.35.404-.884 1.035-1.185 1.403-.3.368-.562.665-.582.66a8.57 8.57 0 0 1-.504-.324 10.096 10.096 0 0 0-3.65-1.497c-.547-.103-1.79-.248-2.129-.248-.143 0-.272-.02-.286-.042-.014-.023.118-.479.294-1.012zm-.161 36.603c.136-1.708.746-3.316 2.183-5.748.75-1.27 1.42-2.741 1.636-3.59.055-.219.126-.406.157-.416.17-.057 2.23 1.774 2.23 1.982 0 .052-.084.28-.188.505-.499 1.08-.823 2.318-1.013 3.875-.123 1-.14 3.706-.03 4.602.09.728.436 2.452.543 2.708.044.106.068.204.052.22-.063.063-2.242.034-2.69-.036-.85-.133-1.517-.296-2.01-.492l-.484-.193-.115-.386c-.26-.875-.357-1.955-.272-3.03zm.277-28.674c.155 0 1.046-.25 1.522-.427 1.399-.52 2.516-1.385 3.854-2.984.774-.925.79-.94.928-.866.239.128 1.199 1.209 1.568 1.766.699 1.054 1.164 2.116 1.82 4.155.678 2.104 1.07 2.903 1.84 3.757a9.514 9.514 0 0 0 3.395 2.364l.32.13.28.89c.656 2.096 1.414 4.206 1.751 4.873.075.148.128.277.119.286-.042.04-1.407.25-2.014.31-.977.096-2.413.036-3.049-.127l-.499-.128-.178-.36c-.271-.55-.636-1.72-.986-3.16-.667-2.747-.826-3.236-1.338-4.111-.363-.622-1.075-1.338-1.601-1.61-1.214-.63-2.732-.76-4.496-.385-.424.09-.842.191-.927.224a.945.945 0 0 1-.209.06c-.064 0-1.828-3.525-2.052-4.102-.192-.492-.197-.555-.047-.555zm.564 32.582c.507.206 1.073.338 1.893.442.718.091 2.056.13 2.632.076l.296-.028.189.468c.104.257.19.488.19.513 0 .025-1.091.04-2.424.031l-2.424-.014-.126-.222c-.112-.195-.57-1.305-.57-1.378 0-.015.154.035.344.112zm2.983-55.259h2.552l.052.125c.028.069.116.474.194.9.08.428.232 1.061.34 1.408.108.347.175.65.15.674-.087.084-1.5.653-2.1.847-1.062.343-2.874.747-2.931.654-.012-.02-.09-.497-.17-1.06a54.103 54.103 0 0 0-.393-2.268c-.135-.683-.245-1.25-.245-1.26 0-.011 1.148-.02 2.552-.02zm-1.772 8.79c.154-.518.206-3.004.076-3.668l-.034-.172.546-.098a17.99 17.99 0 0 0 4.103-1.236l.509-.222.262.59c1.294 2.907 2.617 4.914 4.247 6.449l.511.48-.66.87c-.864 1.136-2.382 2.952-2.476 2.961-.037.004-1.604-1.658-2.683-2.847-1.296-1.428-2.763-2.424-4.085-2.776-.206-.055-.373-.115-.37-.133 0-.019.027-.108.054-.198zm.593 18.778c.664-.248 1.344-.356 2.425-.385.867-.022 1.075-.01 1.58.092 1.324.268 2.114.857 2.758 2.055.433.806.708 1.637 1.066 3.227.305 1.352.713 2.769 1.02 3.55.105.268.181.486.17.486-.076 0-1.718-.644-2.048-.802-.491-.237-1.474-.88-1.997-1.307-.536-.437-2.008-1.965-2.334-2.423-.147-.206-.43-.592-.63-.857a17.645 17.645 0 0 1-.8-1.213c-.476-.792-1.363-2.321-1.363-2.35a.48.48 0 0 1 .153-.073zm2.513 22.054c.09-2.214.476-4.043 1.122-5.31l.234-.458.559.791c.796 1.128.91 1.305 1.793 2.787.435.732.986 1.655 1.223 2.052.237.396.575.97.75 1.275.175.305.49.802.699 1.104.208.302.38.579.38.615 0 .086-.84.757-1.513 1.208-.607.408-1.51.884-2.171 1.147-.498.197-1.568.478-2.034.532l-.31.037-.125-.409c-.494-1.622-.69-3.353-.607-5.37zm.906 6.07c.033-.01.372-.084.753-.166 1.01-.217 1.595-.419 2.467-.852.891-.442 1.75-.995 2.374-1.53.239-.205.442-.363.451-.353.119.13.72 1.022.957 1.419l.307.513-.326.372c-.179.204-.61.665-.956 1.025l-.63.655-2.558-.002-2.558-.002-.17-.531c-.108-.335-.149-.537-.111-.548zm.947-12.75c.394-.661.85-1.28 1.174-1.59.513-.49 1.402-1.12 1.986-1.408.856-.42 1.164-.488 2.051-.454.397.015.766.046.82.069.133.055.216.227.636 1.303.51 1.306.602 1.59.728 2.23.326 1.652.35 3.787.06 5.214-.185.904-.608 1.874-1.174 2.686-.268.385-1.023 1.236-1.097 1.236-.025 0-.208-.23-.404-.513-.355-.51-.639-.98-2.254-3.728-1.1-1.87-1.449-2.422-2.2-3.475-.34-.477-.633-.891-.65-.92-.017-.027.129-.32.325-.65zm.013-25.294c.175-.207.713-.833 1.197-1.39l.878-1.015.593.626c.326.344.742.785.924.98.525.562 1.72 1.643 2.355 2.13.32.246.589.45.597.456.01.005-.033.293-.092.641-.157.934-.184 1.434-.122 2.27.138 1.867.414 3.113 1.18 5.32.733 2.117.87 2.522.851 2.54-.046.045-1.323-.622-1.802-.942-.575-.383-1.406-1.146-1.826-1.675-.508-.64-1.125-2.028-1.584-3.561-.738-2.468-1.61-4.098-2.868-5.363a14.81 14.81 0 0 1-.599-.62c0-.011.143-.19.318-.397zm2.05-17.648h2.312l-.247.256c-.491.51-1.419 1.267-2.1 1.716-.64.42-1.478.909-1.565.91-.12.004-.712-2.282-.712-2.75v-.132zm-1.414 3.13c.207-.063 1.557-.89 2.053-1.257.702-.52 1.307-1.04 1.719-1.476l.373-.397h2.888l.058.153c.184.484.23.86.257 2.089.063 2.926-.354 4.625-1.73 7.045-.444.782-.789 1.303-.862 1.303-.095 0-.836-.736-1.48-1.47-1.18-1.343-2.33-3.247-3.091-5.122-.337-.828-.335-.821-.185-.867zm2.103 11.396c.215-.228.63-.715.923-1.08l.956-1.193c.233-.29.519-.67.635-.846.186-.281.224-.312.307-.25l.636.478c1.112.837 2.017 1.322 3.207 1.72.36.12.67.232.685.249.016.016-.204.274-.49.573-1.349 1.415-2.21 2.787-2.692 4.292-.116.362-.227.658-.248.659-.074 0-1.306-1.027-1.954-1.63-.763-.71-2.362-2.401-2.358-2.493.001-.035.178-.25.393-.479zm2.967 41.34.812-.86.426.62c.234.342.495.74.58.885l.153.264h-1.392c-.765 0-1.391-.012-1.391-.026 0-.013.365-.411.812-.884zm-.352-18.81c.249.06 1.302.197 1.785.232.592.043 1.566-.038 2.733-.226.466-.075.857-.136.87-.136.013 0 .17.305.35.679.674 1.405 1.295 2.325 2.055 3.045.9.852 1.708 1.345 4.25 2.593.731.36 1.387.7 1.457.758l.127.105-.34.443c-.188.244-.58.78-.872 1.192a65.37 65.37 0 0 1-2.022 2.703c-.49.617-.498.624-.728.624-.128 0-.53.037-.893.082-.52.064-.671.067-.71.014-.171-.242-.708-1.492-1.116-2.597-.928-2.52-1.341-3.445-1.938-4.34-.96-1.444-2.28-2.477-3.555-2.783-.214-.052-.422-.125-.463-.163-.041-.038-.308-.56-.594-1.162-.455-.96-.504-1.09-.396-1.064zm.242 15.166c1.715-1.675 2.41-3.683 2.33-6.73-.05-1.914-.34-3.151-1.26-5.39a5.64 5.64 0 0 1-.164-.428c0-.054.6.156.97.341 1.395.697 2.36 1.689 3.119 3.204.402.804.669 1.451 1.38 3.35.35.932.746 1.928.882 2.216.136.287.241.527.233.533-.01.006-.189.066-.402.133-.538.168-1.626.71-2.19 1.09-.982.662-1.625 1.274-2.964 2.824-.449.518-.858.973-.91 1.011-.086.06-.129.013-.384-.425a9.306 9.306 0 0 0-.48-.745 7.854 7.854 0 0 1-.329-.469l-.137-.216zm.151-41.468c.1-.103.991-1.693 1.335-2.378a11.754 11.754 0 0 0 1.111-3.68c.136-1.021.093-3.378-.077-4.141-.064-.29-.117-.533-.117-.54 0-.009.532-.015 1.183-.015h1.185l.032.596c.054 1 .444 1.967 1.034 2.564.781.79 2.338 1.276 4.089 1.276.62 0 .798.015.778.069-.015.038-.108.306-.207.596-.887 2.586-2.369 4.876-4.706 7.273l-.984 1.01-.718-.234c-.918-.298-2.123-.891-2.798-1.376-1.004-.722-1.215-.88-1.216-.909-.001-.016.033-.066.076-.11zm.901 10.065c.031-.286.182-1.095.208-1.121.011-.011.13.053.263.142.684.458 2.2 1.137 3.102 1.388 1.298.362 3.294.39 4.833.069.267-.056.485-.086.485-.066 0 .02-.1.421-.221.893-.615 2.385-.762 4.848-.452 7.554.03.25.023.39-.016.42-.103.079-.933.39-1.261.474-1.229.314-2.911.34-3.982.06-.783-.202-.87-.252-.944-.54-.102-.397-.166-.586-.584-1.713-1.047-2.826-1.405-4.413-1.438-6.368-.01-.533-.01-1.07.01-1.192zm.968 32.906c1.164-1.346 1.942-2.127 2.656-2.667.67-.507 1.757-1.08 2.464-1.3.557-.174.478-.22.86.501l.247.467-.192.238c-1.474 1.83-2.22 3.064-2.823 4.674-.16.427-.325.858-.368.957l-.077.182-1.2-.015-1.199-.015-.37-.616a18.93 18.93 0 0 0-.63-.98c-.143-.2-.26-.373-.258-.382 0-.01.401-.48.89-1.044zm-.562-34.735c.31-1.046.71-1.904 1.321-2.832.421-.639.793-1.087 1.571-1.896l.63-.655.577.054c.662.062 1.544-.014 2.085-.18 2.876-.882 5.234-2.74 7.536-5.937l.531-.738v5.255l-.698.692c-2.458 2.436-3.763 4.477-4.677 7.315l-.259.801-.274.071c-.68.177-1.562.261-2.741.263-1.32.002-1.839-.075-2.855-.423-.98-.335-2.276-.976-2.706-1.34l-.14-.118zm2.288 11.875c.97.28 2.017.362 3.038.237.694-.086 1.59-.298 2.075-.492.235-.094.446-.171.469-.171.023 0 .072.166.11.369.193 1.051.772 2.372 1.364 3.115.203.254.361.468.351.474-.837.533-2.34 1.208-3.586 1.61-.636.204-2.174.6-2.207.568-.045-.046-.874-2.163-1.145-2.927-.263-.742-.925-2.808-.925-2.887 0-.016.205.031.456.104zm1.357-30.74.024-.125h6.147v.939c0 .516-.026 1.133-.058 1.372-.08.59-.32 1.59-.412 1.717-.07.093-.163.103-1.036.1-1.046-.003-1.5-.071-2.337-.354-.543-.184-.755-.287-1.098-.537-.808-.587-1.418-2.133-1.23-3.112zm.26 55.984c.651-1.853 1.47-3.244 2.9-4.927l.159-.187.426.77c.772 1.393 1.619 3.22 2.04 4.399l.218.61h-2.966c-2.336 0-2.965-.014-2.964-.069 0-.038.085-.306.187-.596zm.37-43.274a23.217 23.217 0 0 0 2.325-2.66c1.36-1.809 2.057-3.085 2.738-5.019l.284-.803.36-.04c1.307-.143 2.82-.656 3.95-1.34l.32-.193v3.513l-.43.63c-1.798 2.645-4.193 4.832-6.307 5.758-1.469.644-2.433.835-3.481.69l-.265-.037zm.11 23.928c.673-.132 1.97-.516 2.68-.792a26.36 26.36 0 0 0 1.82-.835l1.093-.552.263.231c.877.772 1.948 1.234 3.426 1.477l.584.095v4.463l-.239.325a25.99 25.99 0 0 0-.535.768c-.478.715-1.284 1.856-1.333 1.885-.024.016-.206-.07-.404-.19-.198-.121-.943-.506-1.655-.855-.712-.35-1.58-.8-1.928-1-1.341-.772-2.418-1.77-3.035-2.811-.401-.678-1.073-1.976-1.073-2.074 0-.04.143-.097.337-.135zm2.645 12.674c.586-.107.908-.138.888-.088-.027.068-.846 1.1-.875 1.101-.027.002-.499-.849-.499-.9 0-.013.219-.065.486-.113zm.548.823c.2-.244.47-.558.598-.699l.234-.255.627.076c.753.091 1.295.265 1.904.61.942.532 1.29.835 2.306 2.01l.824.951.18.208v3.614H1088.916l-.21-.597c-.417-1.19-1.278-3.077-2.084-4.566-.24-.446-.437-.832-.437-.86.001-.026.166-.248.367-.492zm.386-24.506c.094-1.202.348-2.633.704-3.964l.185-.693.384-.129c1.08-.361 1.98-.71 2.353-.912.725-.392 1.54-.958 2.219-1.543.21-.18.394-.327.411-.327.017 0 .031.863.031 1.918v1.917l-.518.952c-.284.523-.7 1.3-.924 1.727-.923 1.765-1.462 2.56-2.346 3.456-.602.61-1.578 1.397-2.093 1.689l-.254.144-.066-.649c-.067-.661-.125-3.085-.086-3.586zm.42 4.41c1.077-.596 2.38-1.743 3.165-2.787.436-.58 1.178-1.837 1.987-3.369l.687-1.302.014 3.874.014 3.874-.206.256c-.398.492-2.1 2.156-2.554 2.496-.252.19-.685.494-.962.678l-.504.333-.138-.129c-.282-.263-.78-.983-1.03-1.49-.258-.526-.607-1.581-.676-2.05l-.037-.25zm.838 18.092c.314-.392.93-1.212 1.368-1.822 1.29-1.793 1.551-2.134 1.63-2.134.1 0 .89.5 1.518.962l.513.377v3.544c0 1.95-.012 3.544-.027 3.544s-.323-.355-.686-.79c-1.12-1.342-1.73-1.871-2.64-2.291-.512-.237-1.668-.578-1.957-.578-.126 0-.242-.023-.259-.05-.017-.027.226-.37.54-.762zm.035-28.407a15.605 15.605 0 0 1 2.628-4.823c.494-.616 1.824-2.059 2.128-2.308l.238-.195v5.196l-.264.253c-.67.644-1.673 1.373-2.46 1.788-.817.43-2.543 1.082-2.543.959 0-.036.123-.428.273-.87zm.562-16.3c.202-.816.285-1.64.265-2.62l-.02-.929H1093.226v2.412l-.374.24c-.891.57-2.027 1.01-3.237 1.254-.73.148-.94.17-.93.1 0-.023.052-.229.109-.457zm1.03 30.456c.915-.602 1.456-1.056 2.473-2.077l.929-.932V304.063h-.187c-.299 0-1.132-.158-1.643-.312-.665-.2-1.39-.596-1.817-.992l-.359-.333zm1.788 9.657c.115-.152.52-.725.898-1.272l.688-.994.015.95c.01.521.01 1.386 0 1.92l-.015.971-.9-.593c-.495-.327-.899-.619-.897-.65 0-.03.096-.18.211-.332z" style="fill:#000;stroke-width:.0554436" transform="translate(-1008.062 -268.023)"/></svg>
