<?xml version="1.0" encoding="UTF-8" standalone="no"?>
<!-- Created with Inkscape (http://www.inkscape.org/) -->

<svg
   width="50.143276mm"
   height="14.451545mm"
   viewBox="0 0 50.143276 14.451545"
   version="1.1"
   id="svg1"
   xml:space="preserve"
   xmlns="http://www.w3.org/2000/svg"
   xmlns:svg="http://www.w3.org/2000/svg"><defs
     id="defs1"><linearGradient
       id="swatch43"><stop
         style="stop-color:#000000;stop-opacity:1;"
         offset="0"
         id="stop43" /></linearGradient><linearGradient
       id="swatch34"><stop
         style="stop-color:#000000;stop-opacity:1;"
         offset="0"
         id="stop34" /></linearGradient></defs><g
     id="layer1"
     transform="translate(-3.7205881,-3.7159473)"><rect
       style="fill:#ffffff;stroke:none;stroke-width:0.272885"
       id="rect2"
       width="50.143276"
       height="14.451547"
       x="3.7205877"
       y="3.7159476" /><text
       xml:space="preserve"
       style="font-style:normal;font-variant:normal;font-weight:normal;font-stretch:normal;font-size:14.1111px;font-family:'Major Mono Display';-inkscape-font-specification:'Major Mono Display';text-align:center;writing-mode:lr-tb;direction:ltr;text-anchor:middle;fill:#000000;stroke:#000000;stroke-width:0.0278411"
       x="28.778124"
       y="14.681168"
       id="text27"><tspan
         id="tspan27"
         x="28.778124"
         y="14.681168"
         style="font-style:normal;font-variant:normal;font-weight:normal;font-stretch:normal;font-size:14.1111px;font-family:'Cal Sans';-inkscape-font-specification:'Cal Sans';stroke-width:0.0278411">Tek     ps</tspan></text><path
       id="path14894"
       d="m 27.37893,10.734827 c -0.01585,-0.08692 -0.01195,-0.160735 -0.01195,-0.251151 v -0.02391 c 1.421372,-0.121937 2.969777,-0.4799646 4.12225,-1.3035741 0.330673,0.1515032 0.655871,0.1308349 0.967829,-0.023921 0.653621,0.660157 1.295046,1.1189641 2.150738,1.3872821 0.08761,0.223249 0.227026,0.394674 0.418208,0.514262 -0.230996,0.57405 -0.553612,1.080342 -0.967835,1.518833 -0.612214,-0.44101 -1.420574,-0.121657 -1.696688,0.514263 -1.914738,-0.02074 -3.844592,-0.858465 -4.982552,-2.332081 z m 4.970586,3.085516 c -0.977444,0.504811 -2.009111,0.776956 -3.058836,0.717562 -0.811935,-0.681293 -1.397017,-1.57188 -1.69668,-2.499512 1.318682,1.133377 3.071355,1.780166 4.755516,1.78195 z m 2.162695,-0.143511 c 1.112283,-0.23201 2.134324,-0.679256 2.963221,-1.363363 -1.087963,2.836597 -4.364311,4.133337 -7.049634,2.930046 0.871699,-0.125599 1.69054,-0.426661 2.389703,-0.825181 0.698718,0.400366 1.530244,-0.02078 1.69671,-0.741502 z m 2.055145,-2.918087 c 0.428144,-0.0316 0.845631,-0.0631 1.24265,-0.131552 -7.76e-4,0.106891 -0.01181,0.212117 -0.01195,0.310941 -0.746453,0.955289 -1.868469,1.607958 -2.987131,1.9135 0.417443,-0.506794 0.727081,-1.069779 0.943929,-1.638436 0.340928,-0.04423 0.619411,-0.200839 0.812502,-0.454453 z M 36.75854,9.9933399 C 36.7114,9.6388421 36.534085,9.3511045 36.256696,9.1681444 c 0.08766,-0.8117107 0.102113,-1.6037267 0.03585,-2.3679549 0.836836,0.8638815 1.343577,1.9665339 1.481616,3.0615988 -0.302696,0.063783 -0.641245,0.1076391 -1.01562,0.1315516 z M 30.939592,8.6180071 c -1.055515,0.6650484 -2.291428,0.9881104 -3.51287,1.0883145 0.305039,-1.9062995 1.603479,-3.4817813 3.345584,-4.1259848 0.04733,0.6190636 0.190682,1.2167449 0.418215,1.7341067 -0.365286,0.3709296 -0.452041,0.8464681 -0.250929,1.3035636 z m 2.055144,-0.8849938 c 0.550157,-0.6830796 1.007538,-1.3811042 1.266551,-2.2005307 0.446075,0.1514976 0.848346,0.3468272 1.206802,0.5860179 0.125197,0.9850161 0.142606,1.9661247 0.04778,2.8822171 C 35.083082,9.0745806 34.74285,9.3379008 34.595826,9.7182684 33.956902,9.4869807 33.433874,9.0562582 32.970832,8.594084 33.087134,8.2940358 33.091531,8.0127865 32.994732,7.7330133 Z M 31.883529,7.027412 C 31.661211,6.4778417 31.516111,5.9452941 31.513117,5.3650583 32.179749,5.2116832 32.899451,5.2167914 33.532419,5.3411406 33.290602,6.0181038 32.908527,6.6455252 32.504844,7.1589636 32.362803,7.098296 32.016829,6.9631553 31.883529,7.027412 Z"
       style="stroke-width:0.0087029" /></g></svg>
